<mxfile host="drawio-plugin" modified="2023-04-12T04:47:56.739Z" agent="5.0 (Macintosh; Intel Mac OS X 10_15_7) AppleWebKit/537.36 (KHTML, like Gecko) Chrome/104.0.5112.102 Safari/537.36" etag="rEk45eUvdoLTWmkrIqbe" version="20.5.3" type="embed"><diagram id="GRIcKmsVg-t9VBOsjjtH" name="UseCase"><mxGraphModel dx="2672" dy="1726" grid="0" gridSize="10" guides="1" tooltips="1" connect="1" arrows="1" fold="1" page="0" pageScale="1" pageWidth="850" pageHeight="1100" background="#ffffff" math="0" shadow="0"><root><mxCell id="0"/><mxCell id="1" parent="0"/><mxCell id="70" value="" style="group;movable=0;resizable=0;rotatable=0;deletable=0;editable=0;connectable=0;" vertex="1" connectable="0" parent="1"><mxGeometry x="-560" y="-210" width="1120" height="1310" as="geometry"/></mxCell><mxCell id="2" value="&lt;font style=&quot;font-size: 18px;&quot;&gt;User&lt;/font&gt;" style="shape=umlActor;verticalLabelPosition=bottom;verticalAlign=top;html=1;outlineConnect=0;fillColor=default;fontColor=#000000;strokeColor=#B09500;" parent="70" vertex="1"><mxGeometry y="350" width="40" height="70" as="geometry"/></mxCell><mxCell id="26" value="&lt;p&gt;&lt;font style=&quot;font-size: 20px;&quot; face=&quot;Times New Roman&quot; color=&quot;#000000&quot;&gt;Login&lt;/font&gt;&lt;/p&gt;" style="ellipse;whiteSpace=wrap;html=1;fillColor=none;strokeColor=#000000;" vertex="1" parent="70"><mxGeometry x="160" y="330" width="160" height="80" as="geometry"/></mxCell><mxCell id="27" value="Register" style="ellipse;whiteSpace=wrap;html=1;strokeColor=#000000;fontFamily=Times New Roman;fontSize=20;fontColor=#000000;fillColor=none;" vertex="1" parent="70"><mxGeometry x="160" y="210" width="160" height="80" as="geometry"/></mxCell><mxCell id="28" value="User Info" style="ellipse;whiteSpace=wrap;html=1;strokeColor=#000000;fontFamily=Times New Roman;fontSize=20;fontColor=#000000;fillColor=none;" vertex="1" parent="70"><mxGeometry x="160" y="450" width="160" height="80" as="geometry"/></mxCell><mxCell id="30" value="View All Post" style="ellipse;whiteSpace=wrap;html=1;strokeColor=#000000;fontFamily=Times New Roman;fontSize=20;fontColor=#000000;fillColor=none;" vertex="1" parent="70"><mxGeometry x="440" y="210" width="160" height="80" as="geometry"/></mxCell><mxCell id="31" value="" style="endArrow=classic;html=1;rounded=0;fontFamily=Times New Roman;fontSize=20;fontColor=#000000;strokeWidth=2;strokeColor=#000000;entryX=0;entryY=0.5;entryDx=0;entryDy=0;exitX=1;exitY=0.3333333333333333;exitDx=0;exitDy=0;exitPerimeter=0;" edge="1" parent="70" source="2" target="27"><mxGeometry width="50" height="50" relative="1" as="geometry"><mxPoint x="273" y="761" as="sourcePoint"/><mxPoint x="323" y="711" as="targetPoint"/></mxGeometry></mxCell><mxCell id="32" value="" style="endArrow=classic;html=1;rounded=0;strokeColor=#000000;strokeWidth=2;fontFamily=Times New Roman;fontSize=20;fontColor=#000000;exitX=1;exitY=0.3333333333333333;exitDx=0;exitDy=0;exitPerimeter=0;entryX=0;entryY=0.5;entryDx=0;entryDy=0;" edge="1" parent="70" source="2" target="26"><mxGeometry width="50" height="50" relative="1" as="geometry"><mxPoint x="270" y="760" as="sourcePoint"/><mxPoint x="320" y="710" as="targetPoint"/></mxGeometry></mxCell><mxCell id="33" value="" style="endArrow=classic;html=1;rounded=0;strokeColor=#000000;strokeWidth=2;fontFamily=Times New Roman;fontSize=20;fontColor=#000000;exitX=1;exitY=0.3333333333333333;exitDx=0;exitDy=0;exitPerimeter=0;entryX=0;entryY=0.5;entryDx=0;entryDy=0;" edge="1" parent="70" source="2" target="28"><mxGeometry width="50" height="50" relative="1" as="geometry"><mxPoint x="270" y="760" as="sourcePoint"/><mxPoint x="320" y="710" as="targetPoint"/></mxGeometry></mxCell><mxCell id="34" value="" style="endArrow=classic;html=1;rounded=0;strokeColor=#000000;strokeWidth=2;fontFamily=Times New Roman;fontSize=20;fontColor=#000000;exitX=1;exitY=0.5;exitDx=0;exitDy=0;entryX=0;entryY=0.5;entryDx=0;entryDy=0;dashed=1;" edge="1" parent="70" source="28" target="30"><mxGeometry width="50" height="50" relative="1" as="geometry"><mxPoint x="270" y="760" as="sourcePoint"/><mxPoint x="320" y="710" as="targetPoint"/></mxGeometry></mxCell><mxCell id="35" value="User Info" style="ellipse;whiteSpace=wrap;html=1;strokeColor=#000000;fontFamily=Times New Roman;fontSize=20;fontColor=#000000;fillColor=none;" vertex="1" parent="70"><mxGeometry x="440" y="450" width="160" height="80" as="geometry"/></mxCell><mxCell id="36" value="" style="endArrow=classic;html=1;rounded=0;dashed=1;strokeColor=#000000;strokeWidth=2;fontFamily=Times New Roman;fontSize=20;fontColor=#000000;entryX=0;entryY=0.5;entryDx=0;entryDy=0;exitX=1;exitY=0.5;exitDx=0;exitDy=0;" edge="1" parent="70" source="28" target="35"><mxGeometry width="50" height="50" relative="1" as="geometry"><mxPoint x="270" y="760" as="sourcePoint"/><mxPoint x="320" y="710" as="targetPoint"/></mxGeometry></mxCell><mxCell id="37" value="See Owner Posts" style="ellipse;whiteSpace=wrap;html=1;strokeColor=#000000;fontFamily=Times New Roman;fontSize=20;fontColor=#000000;fillColor=none;" vertex="1" parent="70"><mxGeometry x="440" y="630" width="160" height="80" as="geometry"/></mxCell><mxCell id="38" value="" style="endArrow=classic;html=1;rounded=0;dashed=1;strokeColor=#000000;strokeWidth=2;fontFamily=Times New Roman;fontSize=20;fontColor=#000000;entryX=0;entryY=0.5;entryDx=0;entryDy=0;exitX=1;exitY=0.5;exitDx=0;exitDy=0;" edge="1" parent="70" source="28" target="37"><mxGeometry width="50" height="50" relative="1" as="geometry"><mxPoint x="270" y="760" as="sourcePoint"/><mxPoint x="320" y="710" as="targetPoint"/></mxGeometry></mxCell><mxCell id="39" value="Friend List" style="ellipse;whiteSpace=wrap;html=1;strokeColor=#000000;fontFamily=Times New Roman;fontSize=20;fontColor=#000000;fillColor=none;" vertex="1" parent="70"><mxGeometry x="440" y="870" width="160" height="80" as="geometry"/></mxCell><mxCell id="40" value="Chat List" style="ellipse;whiteSpace=wrap;html=1;strokeColor=#000000;fontFamily=Times New Roman;fontSize=20;fontColor=#000000;fillColor=none;" vertex="1" parent="70"><mxGeometry x="450" y="1170" width="160" height="80" as="geometry"/></mxCell><mxCell id="41" value="Comment Post" style="ellipse;whiteSpace=wrap;html=1;strokeColor=#000000;fontFamily=Times New Roman;fontSize=20;fontColor=#000000;fillColor=none;" vertex="1" parent="70"><mxGeometry x="680" y="150" width="160" height="80" as="geometry"/></mxCell><mxCell id="42" value="1. All Own Post,&lt;br&gt;2. Friend's Post (Public/Friend)&lt;br&gt;3. Friend of My Friend &lt;br&gt;(Public Posts that Friend liked or commented)" style="ellipse;shape=cloud;whiteSpace=wrap;html=1;strokeColor=#000000;fontFamily=Times New Roman;fontSize=20;fontColor=#000000;fillColor=none;" vertex="1" parent="70"><mxGeometry x="205" width="520" height="160" as="geometry"/></mxCell><mxCell id="44" value="" style="endArrow=none;dashed=1;html=1;dashPattern=1 3;strokeWidth=2;rounded=0;strokeColor=#000000;fontFamily=Times New Roman;fontSize=20;fontColor=#000000;exitX=0.55;exitY=0.95;exitDx=0;exitDy=0;exitPerimeter=0;entryX=0.438;entryY=-0.062;entryDx=0;entryDy=0;entryPerimeter=0;" edge="1" parent="70" source="42" target="30"><mxGeometry width="50" height="50" relative="1" as="geometry"><mxPoint x="530" y="400" as="sourcePoint"/><mxPoint x="580" y="350" as="targetPoint"/></mxGeometry></mxCell><mxCell id="45" value="Like Post" style="ellipse;whiteSpace=wrap;html=1;strokeColor=#000000;fontFamily=Times New Roman;fontSize=20;fontColor=#000000;fillColor=none;" vertex="1" parent="70"><mxGeometry x="680" y="270" width="160" height="80" as="geometry"/></mxCell><mxCell id="46" value="" style="endArrow=classic;html=1;rounded=0;dashed=1;strokeColor=#000000;strokeWidth=2;fontFamily=Times New Roman;fontSize=20;fontColor=#000000;entryX=0;entryY=0.5;entryDx=0;entryDy=0;exitX=1;exitY=0.5;exitDx=0;exitDy=0;" edge="1" parent="70" source="30" target="41"><mxGeometry width="50" height="50" relative="1" as="geometry"><mxPoint x="530" y="380" as="sourcePoint"/><mxPoint x="580" y="330" as="targetPoint"/></mxGeometry></mxCell><mxCell id="47" value="" style="endArrow=classic;html=1;rounded=0;dashed=1;strokeColor=#000000;strokeWidth=2;fontFamily=Times New Roman;fontSize=20;fontColor=#000000;entryX=0;entryY=0.5;entryDx=0;entryDy=0;exitX=1;exitY=0.5;exitDx=0;exitDy=0;" edge="1" parent="70" source="30" target="45"><mxGeometry width="50" height="50" relative="1" as="geometry"><mxPoint x="530" y="380" as="sourcePoint"/><mxPoint x="580" y="330" as="targetPoint"/></mxGeometry></mxCell><mxCell id="48" value="Change User Info" style="ellipse;whiteSpace=wrap;html=1;strokeColor=#000000;fontFamily=Times New Roman;fontSize=20;fontColor=#000000;fillColor=none;" vertex="1" parent="70"><mxGeometry x="680" y="390" width="160" height="80" as="geometry"/></mxCell><mxCell id="49" value="Change Password" style="ellipse;whiteSpace=wrap;html=1;strokeColor=#000000;fontFamily=Times New Roman;fontSize=20;fontColor=#000000;fillColor=none;" vertex="1" parent="70"><mxGeometry x="680" y="510" width="160" height="80" as="geometry"/></mxCell><mxCell id="50" value="" style="endArrow=classic;html=1;rounded=0;dashed=1;strokeColor=#000000;strokeWidth=2;fontFamily=Times New Roman;fontSize=20;fontColor=#000000;entryX=0;entryY=0.5;entryDx=0;entryDy=0;exitX=1;exitY=0.5;exitDx=0;exitDy=0;" edge="1" parent="70" source="35" target="48"><mxGeometry width="50" height="50" relative="1" as="geometry"><mxPoint x="530" y="380" as="sourcePoint"/><mxPoint x="580" y="330" as="targetPoint"/></mxGeometry></mxCell><mxCell id="51" value="" style="endArrow=classic;html=1;rounded=0;dashed=1;strokeColor=#000000;strokeWidth=2;fontFamily=Times New Roman;fontSize=20;fontColor=#000000;entryX=0;entryY=0.5;entryDx=0;entryDy=0;exitX=1;exitY=0.5;exitDx=0;exitDy=0;" edge="1" parent="70" source="35" target="49"><mxGeometry width="50" height="50" relative="1" as="geometry"><mxPoint x="530" y="380" as="sourcePoint"/><mxPoint x="580" y="330" as="targetPoint"/></mxGeometry></mxCell><mxCell id="52" value="View Detail&lt;br&gt;Update/Delete" style="ellipse;whiteSpace=wrap;html=1;strokeColor=#000000;fontFamily=Times New Roman;fontSize=20;fontColor=#000000;fillColor=none;" vertex="1" parent="70"><mxGeometry x="680" y="630" width="160" height="80" as="geometry"/></mxCell><mxCell id="53" value="" style="endArrow=classic;html=1;rounded=0;dashed=1;strokeColor=#000000;strokeWidth=2;fontFamily=Times New Roman;fontSize=20;fontColor=#000000;entryX=0;entryY=0.5;entryDx=0;entryDy=0;exitX=1;exitY=0.5;exitDx=0;exitDy=0;" edge="1" parent="70" source="37" target="52"><mxGeometry width="50" height="50" relative="1" as="geometry"><mxPoint x="300" y="620" as="sourcePoint"/><mxPoint x="350" y="570" as="targetPoint"/></mxGeometry></mxCell><mxCell id="54" value="View All Friend" style="ellipse;whiteSpace=wrap;html=1;strokeColor=#000000;fontFamily=Times New Roman;fontSize=20;fontColor=#000000;fillColor=none;" vertex="1" parent="70"><mxGeometry x="680" y="750" width="160" height="80" as="geometry"/></mxCell><mxCell id="55" value="Manage Requests" style="ellipse;whiteSpace=wrap;html=1;strokeColor=#000000;fontFamily=Times New Roman;fontSize=20;fontColor=#000000;fillColor=none;" vertex="1" parent="70"><mxGeometry x="680" y="990" width="160" height="80" as="geometry"/></mxCell><mxCell id="56" value="Add New Friends" style="ellipse;whiteSpace=wrap;html=1;strokeColor=#000000;fontFamily=Times New Roman;fontSize=20;fontColor=#000000;fillColor=none;" vertex="1" parent="70"><mxGeometry x="680" y="870" width="160" height="80" as="geometry"/></mxCell><mxCell id="57" value="" style="endArrow=classic;html=1;rounded=0;dashed=1;strokeColor=#000000;strokeWidth=2;fontFamily=Times New Roman;fontSize=20;fontColor=#000000;entryX=0;entryY=0.5;entryDx=0;entryDy=0;exitX=1;exitY=0.5;exitDx=0;exitDy=0;" edge="1" parent="70" source="28" target="39"><mxGeometry width="50" height="50" relative="1" as="geometry"><mxPoint x="290" y="760" as="sourcePoint"/><mxPoint x="340" y="710" as="targetPoint"/></mxGeometry></mxCell><mxCell id="58" value="" style="endArrow=classic;html=1;rounded=0;dashed=1;strokeColor=#000000;strokeWidth=2;fontFamily=Times New Roman;fontSize=20;fontColor=#000000;entryX=0;entryY=0.5;entryDx=0;entryDy=0;exitX=1;exitY=0.5;exitDx=0;exitDy=0;" edge="1" parent="70" source="39" target="54"><mxGeometry width="50" height="50" relative="1" as="geometry"><mxPoint x="290" y="760" as="sourcePoint"/><mxPoint x="340" y="710" as="targetPoint"/></mxGeometry></mxCell><mxCell id="59" value="" style="endArrow=classic;html=1;rounded=0;dashed=1;strokeColor=#000000;strokeWidth=2;fontFamily=Times New Roman;fontSize=20;fontColor=#000000;entryX=0;entryY=0.5;entryDx=0;entryDy=0;exitX=1;exitY=0.5;exitDx=0;exitDy=0;" edge="1" parent="70" source="39" target="56"><mxGeometry width="50" height="50" relative="1" as="geometry"><mxPoint x="290" y="760" as="sourcePoint"/><mxPoint x="340" y="710" as="targetPoint"/></mxGeometry></mxCell><mxCell id="60" value="" style="endArrow=classic;html=1;rounded=0;dashed=1;strokeColor=#000000;strokeWidth=2;fontFamily=Times New Roman;fontSize=20;fontColor=#000000;entryX=0;entryY=0.5;entryDx=0;entryDy=0;exitX=1;exitY=0.5;exitDx=0;exitDy=0;" edge="1" parent="70" source="39" target="55"><mxGeometry width="50" height="50" relative="1" as="geometry"><mxPoint x="290" y="760" as="sourcePoint"/><mxPoint x="340" y="710" as="targetPoint"/></mxGeometry></mxCell><mxCell id="61" value="New Chat" style="ellipse;whiteSpace=wrap;html=1;strokeColor=#000000;fontFamily=Times New Roman;fontSize=20;fontColor=#000000;fillColor=none;" vertex="1" parent="70"><mxGeometry x="680" y="1110" width="160" height="80" as="geometry"/></mxCell><mxCell id="62" value="Current Chat List" style="ellipse;whiteSpace=wrap;html=1;strokeColor=#000000;fontFamily=Times New Roman;fontSize=20;fontColor=#000000;fillColor=none;" vertex="1" parent="70"><mxGeometry x="680" y="1230" width="160" height="80" as="geometry"/></mxCell><mxCell id="63" value="" style="endArrow=classic;html=1;rounded=0;dashed=1;strokeColor=#000000;strokeWidth=2;fontFamily=Times New Roman;fontSize=20;fontColor=#000000;entryX=0;entryY=0.5;entryDx=0;entryDy=0;exitX=1;exitY=0.5;exitDx=0;exitDy=0;" edge="1" parent="70" source="28" target="40"><mxGeometry width="50" height="50" relative="1" as="geometry"><mxPoint x="290" y="750" as="sourcePoint"/><mxPoint x="340" y="700" as="targetPoint"/></mxGeometry></mxCell><mxCell id="64" value="" style="endArrow=classic;html=1;rounded=0;dashed=1;strokeColor=#000000;strokeWidth=2;fontFamily=Times New Roman;fontSize=20;fontColor=#000000;entryX=0;entryY=0.5;entryDx=0;entryDy=0;exitX=1;exitY=0.5;exitDx=0;exitDy=0;" edge="1" parent="70" source="40" target="61"><mxGeometry width="50" height="50" relative="1" as="geometry"><mxPoint x="290" y="750" as="sourcePoint"/><mxPoint x="340" y="700" as="targetPoint"/></mxGeometry></mxCell><mxCell id="65" value="" style="endArrow=classic;html=1;rounded=0;dashed=1;strokeColor=#000000;strokeWidth=2;fontFamily=Times New Roman;fontSize=20;fontColor=#000000;entryX=0;entryY=0.5;entryDx=0;entryDy=0;exitX=1;exitY=0.5;exitDx=0;exitDy=0;" edge="1" parent="70" source="40" target="62"><mxGeometry width="50" height="50" relative="1" as="geometry"><mxPoint x="290" y="750" as="sourcePoint"/><mxPoint x="340" y="700" as="targetPoint"/></mxGeometry></mxCell><mxCell id="66" value="Continue/Delete" style="ellipse;whiteSpace=wrap;html=1;strokeColor=#000000;fontFamily=Times New Roman;fontSize=20;fontColor=#000000;fillColor=none;" vertex="1" parent="70"><mxGeometry x="960" y="1230" width="160" height="80" as="geometry"/></mxCell><mxCell id="67" style="edgeStyle=orthogonalEdgeStyle;rounded=0;orthogonalLoop=1;jettySize=auto;html=1;entryX=0;entryY=0.5;entryDx=0;entryDy=0;dashed=1;strokeColor=#000000;strokeWidth=2;fontFamily=Times New Roman;fontSize=20;fontColor=#000000;" edge="1" parent="70" source="62" target="66"><mxGeometry relative="1" as="geometry"/></mxCell><mxCell id="68" value="Find Acc to New Chat" style="ellipse;whiteSpace=wrap;html=1;strokeColor=#000000;fontFamily=Times New Roman;fontSize=20;fontColor=#000000;fillColor=none;" vertex="1" parent="70"><mxGeometry x="960" y="1110" width="160" height="80" as="geometry"/></mxCell><mxCell id="69" style="edgeStyle=orthogonalEdgeStyle;rounded=0;orthogonalLoop=1;jettySize=auto;html=1;entryX=0;entryY=0.5;entryDx=0;entryDy=0;dashed=1;strokeColor=#000000;strokeWidth=2;fontFamily=Times New Roman;fontSize=20;fontColor=#000000;" edge="1" parent="70" source="61" target="68"><mxGeometry relative="1" as="geometry"/></mxCell><mxCell id="228" value="" style="group;movable=0;resizable=0;rotatable=0;deletable=0;editable=0;connectable=0;" vertex="1" connectable="0" parent="1"><mxGeometry x="690" y="-160" width="590" height="560" as="geometry"/></mxCell><mxCell id="71" value="&lt;font color=&quot;#000000&quot;&gt;Admin&lt;/font&gt;" style="shape=umlActor;verticalLabelPosition=bottom;verticalAlign=top;html=1;outlineConnect=0;strokeColor=#2D7600;fontFamily=Times New Roman;fontSize=20;fontColor=#ffffff;fillColor=#60a917;" vertex="1" parent="228"><mxGeometry y="20" width="30" height="60" as="geometry"/></mxCell><mxCell id="72" value="Login" style="ellipse;whiteSpace=wrap;html=1;strokeColor=#000000;fontFamily=Times New Roman;fontSize=20;fontColor=#000000;fillColor=none;" vertex="1" parent="228"><mxGeometry x="150" width="160" height="80" as="geometry"/></mxCell><mxCell id="73" value="" style="endArrow=classic;html=1;rounded=0;strokeColor=#000000;strokeWidth=2;fontFamily=Times New Roman;fontSize=20;fontColor=#000000;entryX=0;entryY=0.5;entryDx=0;entryDy=0;exitX=1;exitY=0.3333333333333333;exitDx=0;exitDy=0;exitPerimeter=0;" edge="1" parent="228" source="71" target="72"><mxGeometry width="50" height="50" relative="1" as="geometry"><mxPoint x="-240" y="380" as="sourcePoint"/><mxPoint x="-190" y="330" as="targetPoint"/></mxGeometry></mxCell><mxCell id="76" value="Admin Info" style="ellipse;whiteSpace=wrap;html=1;strokeColor=#000000;fontFamily=Times New Roman;fontSize=20;fontColor=#000000;fillColor=none;" vertex="1" parent="228"><mxGeometry x="150" y="120" width="160" height="80" as="geometry"/></mxCell><mxCell id="79" value="" style="endArrow=classic;html=1;rounded=0;strokeColor=#000000;strokeWidth=2;fontFamily=Times New Roman;fontSize=20;fontColor=#000000;entryX=0;entryY=0.5;entryDx=0;entryDy=0;exitX=1;exitY=0.3333333333333333;exitDx=0;exitDy=0;exitPerimeter=0;" edge="1" parent="228" source="71" target="76"><mxGeometry width="50" height="50" relative="1" as="geometry"><mxPoint x="-240" y="380" as="sourcePoint"/><mxPoint x="-190" y="330" as="targetPoint"/></mxGeometry></mxCell><mxCell id="82" value="User Management" style="ellipse;whiteSpace=wrap;html=1;strokeColor=#000000;fontFamily=Times New Roman;fontSize=20;fontColor=#000000;fillColor=none;" vertex="1" parent="228"><mxGeometry x="150" y="360" width="160" height="80" as="geometry"/></mxCell><mxCell id="83" value="Change password" style="ellipse;whiteSpace=wrap;html=1;strokeColor=#000000;fontFamily=Times New Roman;fontSize=20;fontColor=#000000;fillColor=none;" vertex="1" parent="228"><mxGeometry x="430" y="120" width="160" height="80" as="geometry"/></mxCell><mxCell id="87" value="Block User&lt;br&gt;(User and PM)" style="ellipse;whiteSpace=wrap;html=1;strokeColor=#000000;fontFamily=Times New Roman;fontSize=20;fontColor=#000000;fillColor=none;" vertex="1" parent="228"><mxGeometry x="430" y="240" width="160" height="80" as="geometry"/></mxCell><mxCell id="88" value="Delete User&lt;br&gt;(User and PM)" style="ellipse;whiteSpace=wrap;html=1;strokeColor=#000000;fontFamily=Times New Roman;fontSize=20;fontColor=#000000;fillColor=none;" vertex="1" parent="228"><mxGeometry x="430" y="360" width="160" height="80" as="geometry"/></mxCell><mxCell id="89" value="Change Role&lt;br&gt;(User &amp;lt;=&amp;gt;PM)" style="ellipse;whiteSpace=wrap;html=1;strokeColor=#000000;fontFamily=Times New Roman;fontSize=20;fontColor=#000000;fillColor=none;" vertex="1" parent="228"><mxGeometry x="430" y="480" width="160" height="80" as="geometry"/></mxCell><mxCell id="86" style="edgeStyle=orthogonalEdgeStyle;rounded=0;orthogonalLoop=1;jettySize=auto;html=1;entryX=0;entryY=0.5;entryDx=0;entryDy=0;strokeColor=#000000;strokeWidth=2;fontFamily=Times New Roman;fontSize=20;fontColor=#000000;dashed=1;" edge="1" parent="228" source="76" target="83"><mxGeometry relative="1" as="geometry"/></mxCell><mxCell id="90" value="" style="endArrow=classic;html=1;rounded=0;strokeColor=#000000;strokeWidth=2;fontFamily=Times New Roman;fontSize=20;fontColor=#000000;exitX=1;exitY=0.3333333333333333;exitDx=0;exitDy=0;exitPerimeter=0;entryX=0;entryY=0.5;entryDx=0;entryDy=0;" edge="1" parent="228" source="71" target="82"><mxGeometry width="50" height="50" relative="1" as="geometry"><mxPoint x="190" y="340" as="sourcePoint"/><mxPoint x="240" y="290" as="targetPoint"/></mxGeometry></mxCell><mxCell id="91" value="" style="endArrow=classic;html=1;rounded=0;strokeColor=#000000;strokeWidth=2;fontFamily=Times New Roman;fontSize=20;fontColor=#000000;entryX=0;entryY=0.5;entryDx=0;entryDy=0;exitX=1;exitY=0.5;exitDx=0;exitDy=0;dashed=1;" edge="1" parent="228" source="82" target="87"><mxGeometry width="50" height="50" relative="1" as="geometry"><mxPoint x="190" y="340" as="sourcePoint"/><mxPoint x="240" y="290" as="targetPoint"/></mxGeometry></mxCell><mxCell id="92" value="" style="endArrow=classic;html=1;rounded=0;dashed=1;strokeColor=#000000;strokeWidth=2;fontFamily=Times New Roman;fontSize=20;fontColor=#000000;entryX=0;entryY=0.5;entryDx=0;entryDy=0;exitX=1;exitY=0.5;exitDx=0;exitDy=0;" edge="1" parent="228" source="82" target="88"><mxGeometry width="50" height="50" relative="1" as="geometry"><mxPoint x="190" y="340" as="sourcePoint"/><mxPoint x="240" y="290" as="targetPoint"/></mxGeometry></mxCell><mxCell id="93" value="" style="endArrow=classic;html=1;rounded=0;dashed=1;strokeColor=#000000;strokeWidth=2;fontFamily=Times New Roman;fontSize=20;fontColor=#000000;entryX=0;entryY=0.5;entryDx=0;entryDy=0;exitX=1;exitY=0.5;exitDx=0;exitDy=0;" edge="1" parent="228" source="82" target="89"><mxGeometry width="50" height="50" relative="1" as="geometry"><mxPoint x="190" y="340" as="sourcePoint"/><mxPoint x="240" y="290" as="targetPoint"/></mxGeometry></mxCell><mxCell id="229" value="" style="group;movable=0;resizable=0;rotatable=0;deletable=0;editable=0;connectable=0;" vertex="1" connectable="0" parent="1"><mxGeometry x="680" y="480" width="590" height="440" as="geometry"/></mxCell><mxCell id="213" value="&lt;font color=&quot;#000000&quot;&gt;PM&lt;/font&gt;" style="shape=umlActor;verticalLabelPosition=bottom;verticalAlign=top;html=1;outlineConnect=0;strokeColor=#2D7600;fontFamily=Times New Roman;fontSize=20;fontColor=#ffffff;fillColor=#60a917;" vertex="1" parent="229"><mxGeometry y="20" width="30" height="60" as="geometry"/></mxCell><mxCell id="214" value="Login" style="ellipse;whiteSpace=wrap;html=1;strokeColor=#000000;fontFamily=Times New Roman;fontSize=20;fontColor=#000000;fillColor=none;" vertex="1" parent="229"><mxGeometry x="150" width="160" height="80" as="geometry"/></mxCell><mxCell id="215" value="" style="endArrow=classic;html=1;rounded=0;strokeColor=#000000;strokeWidth=2;fontFamily=Times New Roman;fontSize=20;fontColor=#000000;entryX=0;entryY=0.5;entryDx=0;entryDy=0;exitX=1;exitY=0.3333333333333333;exitDx=0;exitDy=0;exitPerimeter=0;" edge="1" source="213" target="214" parent="229"><mxGeometry width="50" height="50" relative="1" as="geometry"><mxPoint x="-240" y="380" as="sourcePoint"/><mxPoint x="-190" y="330" as="targetPoint"/></mxGeometry></mxCell><mxCell id="217" value="Admin/PM Info" style="ellipse;whiteSpace=wrap;html=1;strokeColor=#000000;fontFamily=Times New Roman;fontSize=20;fontColor=#000000;fillColor=none;" vertex="1" parent="229"><mxGeometry x="150" y="120" width="160" height="80" as="geometry"/></mxCell><mxCell id="218" value="" style="endArrow=classic;html=1;rounded=0;strokeColor=#000000;strokeWidth=2;fontFamily=Times New Roman;fontSize=20;fontColor=#000000;entryX=0;entryY=0.5;entryDx=0;entryDy=0;exitX=1;exitY=0.3333333333333333;exitDx=0;exitDy=0;exitPerimeter=0;" edge="1" source="213" target="217" parent="229"><mxGeometry width="50" height="50" relative="1" as="geometry"><mxPoint x="-240" y="380" as="sourcePoint"/><mxPoint x="-190" y="330" as="targetPoint"/></mxGeometry></mxCell><mxCell id="219" value="User Management" style="ellipse;whiteSpace=wrap;html=1;strokeColor=#000000;fontFamily=Times New Roman;fontSize=20;fontColor=#000000;fillColor=none;" vertex="1" parent="229"><mxGeometry x="160" y="300" width="160" height="80" as="geometry"/></mxCell><mxCell id="220" value="Change password" style="ellipse;whiteSpace=wrap;html=1;strokeColor=#000000;fontFamily=Times New Roman;fontSize=20;fontColor=#000000;fillColor=none;" vertex="1" parent="229"><mxGeometry x="430" y="120" width="160" height="80" as="geometry"/></mxCell><mxCell id="221" value="Block User&lt;br&gt;(User only)" style="ellipse;whiteSpace=wrap;html=1;strokeColor=#000000;fontFamily=Times New Roman;fontSize=20;fontColor=#000000;fillColor=none;" vertex="1" parent="229"><mxGeometry x="430" y="240" width="160" height="80" as="geometry"/></mxCell><mxCell id="222" value="Delete User&lt;br&gt;(User only)" style="ellipse;whiteSpace=wrap;html=1;strokeColor=#000000;fontFamily=Times New Roman;fontSize=20;fontColor=#000000;fillColor=none;" vertex="1" parent="229"><mxGeometry x="430" y="360" width="160" height="80" as="geometry"/></mxCell><mxCell id="216" style="edgeStyle=orthogonalEdgeStyle;rounded=0;orthogonalLoop=1;jettySize=auto;html=1;entryX=0;entryY=0.5;entryDx=0;entryDy=0;strokeColor=#000000;strokeWidth=2;fontFamily=Times New Roman;fontSize=20;fontColor=#000000;dashed=1;" edge="1" source="217" target="220" parent="229"><mxGeometry relative="1" as="geometry"/></mxCell><mxCell id="224" value="" style="endArrow=classic;html=1;rounded=0;strokeColor=#000000;strokeWidth=2;fontFamily=Times New Roman;fontSize=20;fontColor=#000000;exitX=1;exitY=0.3333333333333333;exitDx=0;exitDy=0;exitPerimeter=0;entryX=0;entryY=0.5;entryDx=0;entryDy=0;" edge="1" source="213" target="219" parent="229"><mxGeometry width="50" height="50" relative="1" as="geometry"><mxPoint x="190" y="340" as="sourcePoint"/><mxPoint x="240" y="290" as="targetPoint"/></mxGeometry></mxCell><mxCell id="225" value="" style="endArrow=classic;html=1;rounded=0;strokeColor=#000000;strokeWidth=2;fontFamily=Times New Roman;fontSize=20;fontColor=#000000;entryX=0;entryY=0.5;entryDx=0;entryDy=0;exitX=1;exitY=0.5;exitDx=0;exitDy=0;dashed=1;" edge="1" source="219" target="221" parent="229"><mxGeometry width="50" height="50" relative="1" as="geometry"><mxPoint x="190" y="340" as="sourcePoint"/><mxPoint x="240" y="290" as="targetPoint"/></mxGeometry></mxCell><mxCell id="226" value="" style="endArrow=classic;html=1;rounded=0;dashed=1;strokeColor=#000000;strokeWidth=2;fontFamily=Times New Roman;fontSize=20;fontColor=#000000;entryX=0;entryY=0.5;entryDx=0;entryDy=0;exitX=1;exitY=0.5;exitDx=0;exitDy=0;" edge="1" source="219" target="222" parent="229"><mxGeometry width="50" height="50" relative="1" as="geometry"><mxPoint x="190" y="340" as="sourcePoint"/><mxPoint x="240" y="290" as="targetPoint"/></mxGeometry></mxCell></root></mxGraphModel></diagram></mxfile>